<?xml version="1.0" encoding="utf-8"?>
<!-- Generator: Adobe Illustrator 22.1.0, SVG Export Plug-In . SVG Version: 6.00 Build 0)  -->
<svg version="1.1" id="图层_1" xmlns="http://www.w3.org/2000/svg" xmlns:xlink="http://www.w3.org/1999/xlink" x="0px" y="0px"
	 viewBox="0 0 77.1 77" style="enable-background:new 0 0 77.1 77;" xml:space="preserve">
<style type="text/css">
	.st0{fill:#13B5B1;}
</style>
<path class="st0" d="M67.8,33.8l3.2-0.4l-3,1.9l0.1,0.4l4.1-0.5v-0.4L69,35.2l3-1.9l-0.1-0.4l-4.1,0.5V33.8z M57,15.3l1.1-0.7
	l0.9,0.8l-0.6,1.2l0.3,0.3l1.8-3.8l-0.3-0.3l-3.5,2.4L57,15.3z M59.5,13.6c0.2-0.1,0.4-0.3,0.6-0.5c-0.1,0.2-0.2,0.5-0.4,0.8
	L59.2,15l-0.7-0.6L59.5,13.6z M51.1,10.6c-0.1,0.3-0.1,0.6,0,0.9c0.1,0.3,0.3,0.5,0.5,0.6c0.3,0.1,0.6,0.1,0.8,0
	c0.3-0.2,0.6-0.4,0.8-0.7L53,11c-0.2,0.2-0.4,0.4-0.6,0.6c-0.2,0.1-0.4,0.1-0.6,0c-0.2-0.1-0.3-0.2-0.3-0.4c-0.1-0.2-0.1-0.5,0-0.7
	c0.1-0.3,0.2-0.6,0.3-0.9c0.1-0.2,0.3-0.5,0.5-0.7c0.1-0.2,0.3-0.3,0.6-0.4c0.2-0.1,0.4-0.1,0.6,0c0.2,0.1,0.3,0.2,0.3,0.4
	c0.1,0.2,0.1,0.5,0,0.7l0.4,0.1c0.1-0.3,0.1-0.7,0-1s-0.3-0.5-0.5-0.6c-0.3-0.1-0.5-0.1-0.8,0s-0.6,0.2-0.8,0.4
	c-0.3,0.3-0.5,0.6-0.7,0.9C51.3,9.8,51.2,10.2,51.1,10.6L51.1,10.6z M55,13.9l0.3-0.4l-1.5-1l0.8-1.2l1.3,0.9l0.3-0.4L54.9,11
	l0.7-1.1l1.4,0.9l0.3-0.4l-1.7-1.2l-2.2,3.4L55,13.9z M59.2,17.3l2.4-2.2l-1.3,3.3l0.3,0.3l3-2.8l-0.2-0.3L61,17.8l1.3-3.3L62,14.2
	L59,17L59.2,17.3z M68.1,27c-0.4,0.1-0.7,0.3-1,0.5s-0.5,0.4-0.6,0.7c-0.1,0.3-0.1,0.5,0,0.8s0.3,0.5,0.6,0.6
	c0.4,0.1,0.7,0.1,1.1,0.1v-0.4c-0.3,0.1-0.6,0.1-0.8,0c-0.2-0.1-0.4-0.2-0.4-0.4c-0.1-0.2-0.1-0.4,0-0.5c0.1-0.2,0.3-0.4,0.4-0.5
	c0.3-0.2,0.5-0.3,0.8-0.4s0.5-0.1,0.8-0.2c0.2,0,0.5,0,0.7,0.1s0.3,0.3,0.4,0.5s0.1,0.3,0,0.5s-0.3,0.4-0.5,0.5l0.2,0.3
	c0.3-0.2,0.5-0.4,0.7-0.7c0.1-0.2,0.1-0.5,0.1-0.8c-0.1-0.2-0.2-0.4-0.5-0.6s-0.6-0.2-0.8-0.2C68.8,26.8,68.4,26.9,68.1,27z
	 M64.2,23.8l0.2,0.3l3.1-1.8l0.5,0.8l0.4-0.2l-1.1-2l-0.4,0.2l0.5,0.8L64.2,23.8z M65.9,27.3l0.4-0.2l-0.7-1.6l1.3-0.6l0.6,1.4
	l0.4-0.2l-0.7-1.4l1.2-0.5l0.7,1.5l0.4-0.2l-0.8-1.9l-3.8,1.7L65.9,27.3z M61.7,20c0.1,0.1,0.2,0.2,0.3,0.3c0.1,0.1,0.2,0.1,0.4,0.1
	c0.1,0,0.3,0,0.5,0s0.4-0.1,0.6-0.2c0.2-0.1,0.5-0.3,0.7-0.5c0.3-0.2,0.5-0.4,0.7-0.7c0.2-0.2,0.3-0.4,0.3-0.7
	c0.1-0.2,0.1-0.3,0-0.5s-0.2-0.3-0.3-0.4l-0.6-0.8L61,19.2L61.7,20z M64.5,17.7c0.1,0.1,0.2,0.3,0.2,0.4c0,0.2,0,0.4-0.2,0.6
	c-0.2,0.3-0.4,0.5-0.7,0.7c-0.2,0.2-0.4,0.3-0.7,0.4C63,20,62.9,20,62.7,20c-0.1,0-0.2,0-0.3-0.1s-0.2-0.2-0.3-0.3l-0.4-0.5l2.5-2
	L64.5,17.7z M67.2,31l1.9-0.4l0.3,1.4l-1.9,0.4l0.1,0.4l4-0.9l-0.1-0.4l-1.7,0.4l-0.3-1.5l1.7-0.4l-0.1-0.4l-4,0.9L67.2,31z
	 M47.4,10.2l0.1-0.5l-1.7-0.5l0.4-1.3l1.5,0.4l0.1-0.5l-1.5-0.4l0.3-1.2l1.6,0.4l0.1-0.5l-2-0.6l-1.1,4L47.4,10.2z M35.3,68.3
	c-0.1,0.3,0,0.3-0.3,0.5c-0.1,0.1-0.3,0.2-0.4,0.3c-0.2,0.1-0.4,0.2-0.5,0.3c0-0.3,0-0.7,0.2-1c0.4-0.5,0.2-0.1,0.5-0.7
	c0.2-0.4,0.3-0.8,0.4-1.3c0-0.3,0.1-0.5,0.1-0.8s-0.3-1.1-0.6-1.2c-0.1,0.4-0.1,0.8-0.1,1.2c0,0.4-0.1,0.8-0.2,1.2
	c-0.1,0.6-0.3,1.1-0.6,1.6c-0.1,0.2-0.1,0.1-0.2,0.2c-0.2-0.4,0.1-0.5,0.3-0.7s0-0.5-0.3-0.6c-0.2-0.1-0.5,0-0.6,0.2
	s-0.3,0.3-0.4,0.4c-0.2,0.2-0.2,0.4-0.5,0.4c-0.1-0.2,0-0.1-0.1-0.4s0-0.2,0.1-0.4c0.1-0.2,0-0.2,0-0.4s0-0.4,0-0.6L32,66.3
	c-0.2-0.4-0.6-0.5-1-0.4c-0.1,0-0.1,0.1-0.2,0.1l-0.1,0.1l-0.1,0.1c-0.4,0.4-0.5,0.7-0.8,0.9s-0.3,0.3-0.9,0.8
	c-0.2,0.1-0.6,0.4-0.6,0.6c0.2,0,0.1,0,0.3-0.1c0.3,0,0.1,0,0.2,0.1l0.6,0.1c0.3,0,0.7-0.3,0.9-0.3h0.1h0.1
	c-0.6,0.4-0.1,0.3-0.7,0.6C29.5,69,29.6,69,29.3,69c-0.3,0.1-0.6,0.2-0.9,0.4c-0.3,0.1-0.6,0.2-0.9,0.3c-0.3,0-0.4-0.1-0.6-0.1
	c-0.6,0.4-0.2,0.8,0,0.9c0.5,0.1,1.7-0.5,2.2-0.7c0.2-0.1,0.3-0.2,0.5-0.2c0.4-0.2,0.4-0.1,0.5-0.1c-0.2,0.3-0.4,0.6-0.6,0.8
	c-0.2,0.1-0.2,0.1-0.4,0.4c-0.1,0.2-0.2,0.4-0.1,0.6s0.3,0.3,0.5,0.3c0.3,0,0.3-0.2,0.5-0.3c0.1,0.2,0.1,0.4,0.2,0.7
	c0.2,0.2,0.5,0.2,0.7,0.1l0.8-2.1c0.1-0.1,0,0.1,0.1-0.2c0.1-0.5,0.3-0.5,0.7-1c0.1-0.1,0.4-0.4,0.6-0.3c0,0.5-0.3,0.6-0.5,1.1
	S32,70.1,32,70.9c0.4,0.2,0.3,0.2,0.6,0c0.2-0.2,0.4-0.3,0.7-0.3c0,0.6-0.2,1.3-0.4,1.8c-0.2,0.8,0.1,0.1-0.4,1.2
	c-0.3,0.6-0.3,0.8,0,1s0.8,0.2,0.8-0.5l0.1-1.5c0.3-0.6,0.5-1.3,0.5-2c0-0.6,0.4-0.6,1-1s1.1-0.7,0.8-1.3c-0.1-0.1-0.2-0.2-0.3-0.1
	C35.3,68.2,35.3,68.3,35.3,68.3z M33.2,69.8c0-0.1,0-0.2,0-0.3c0-0.1,0.1-0.1,0.2-0.1C33.4,69.6,33.4,69.8,33.2,69.8z M64.5,38.5
	c0.1-14.4-11.5-26-25.9-26.1c-7,0-13.6,2.7-18.5,7.7C10,30.3,10,46.7,20.2,56.9s26.7,10,36.8-0.2C61.8,51.9,64.5,45.3,64.5,38.5z
	 M38.5,64C24.4,64,13,52.6,13,38.5C12.9,24.4,24.4,13,38.4,13C52.5,13,63.9,24.4,64,38.5c0,6.8-2.7,13.3-7.5,18.1
	C51.7,61.3,45.3,64,38.5,64z M46,46.1c-2.3,0.5-4.7,0.7-7.1,0.7l0,0c-0.5,0-0.9,0.4-0.9,0.9v6.9c0,0.2-0.1,0.3-0.3,0.3
	s-0.3-0.1-0.3-0.3v-6.9c0-0.5-0.4-0.9-0.9-0.9l0,0c-2.4,0-4.7-0.3-7.1-0.7c-0.2,0-0.4,0-0.5,0.2s-0.1,0.3,0,0.6l0.4,1.2
	c0.2,0.8,1.3,1,2,1.2l3.1,0.7c1.5,0.3,1.9,1.5,1.9,3v1.4c0,1.2-0.2,2-1,2c-1,0-1.7-1-2.1-1.8l0,0l0,0c0-0.1-0.1-0.1-0.1-0.2
	c-0.3-0.7-0.9-2.1-0.9-2.1c0-0.1-0.1-0.3-0.2-0.3c-0.1-0.1-0.3-0.1-0.4-0.1h-1l1.4,4.7c0.2,1,0.7,2,1.4,2.8c1.3,1,2.9,1.5,4.5,1.4
	c1.6,0.1,3.2-0.4,4.5-1.4c0.7-0.8,1.2-1.7,1.4-2.8l1.3-4.7h-1c-0.1,0-0.3,0-0.4,0.1c-0.1,0.1-0.2,0.2-0.2,0.3c0,0-0.6,1.4-0.8,2.1
	c0,0.1-0.1,0.2-0.1,0.2l0,0l0,0c-0.4,0.9-1.1,1.9-2.1,1.8c-0.8,0-1-0.8-1-2V53c0-1.5,0.4-2.7,1.9-3l3.1-0.7c0.7-0.2,1.8-0.3,2-1.2
	c0,0,0.3-1,0.3-1.2s0.1-0.4,0-0.6S46.2,46.1,46,46.1z M24,65.1c-0.3-0.2-0.2-0.2-0.4-0.3c-0.1,0-0.3,0-0.4,0
	c-0.9-0.2-1.8-0.4-2.6-0.7c-0.6-0.2-1.2-0.3-1.9-0.4c-0.1,0-0.2,0.1-0.3,0.1c-0.1,0.1,0,0.4,0,0.4c0.5,0.3,1,0.5,1.6,0.6l1.6,0.3
	c0.3,0.1,0.3,0,0.5,0s0.3,0,0.5,0.1c-0.1,0.2-0.3,0.2-0.5,0.3s-0.3,0.1-0.5,0.2l-0.9,0.1h-0.2c-0.2,0,0,0-0.2,0
	c-0.4,0-0.8,0.1-1.2,0c-0.8-0.1-0.7-0.3-1,0.5c1.2,1.3,1.3,0.4,1.8,0.8c0,0.3-0.2,0.2,0.1,0.8s0.8,0.5,1.6,0.4
	c0.3,0,0.5-0.1,0.8-0.3c0.8-0.3,1.6-0.3,1.8-1c0.1-0.3,0.1-0.2,0-0.4s-0.3-0.6-0.3-0.8c1,0.2,1.5,1.4,1.9,0.4
	C25.3,65.5,24.6,65.4,24,65.1z M22.7,66.6l-0.2,0.1c-0.2,0.1,0,0.1-0.3,0.1l0,0C21.9,66.9,22,67,21.4,67c-0.2,0-0.2,0-0.5-0.2v-0.1
	c0.3-0.3,0.1,0,1-0.1c0.3,0,0.2-0.1,0.5-0.2c0.5-0.2,0.2-0.2,0.5-0.2C22.9,66.5,22.9,66.5,22.7,66.6L22.7,66.6z M49.2,27
	c-1.1,0.1-2.3,0.4-3.3,0.8s-2,0.5-3,0.2c-1.5-0.6-0.9-4.2,4.5-9.1c0.2-0.2,0.2-0.4,0.1-0.5c-2.1,0.3-4.1,0.8-6.1,1.5
	c-1.8,0.7-3.5,1.5-5.2,2.5c-1.2,0.8-1.4,0.3-1.1-0.4c0.7-1.2,1.7-2.1,2.9-2.8c0.4-0.2,0.3-0.4,0.2-0.5s-3.8,1.4-6.2,2.9
	c-2,1.2-7.7,5-8.4,11c-0.4,2,0.1,4.1,1.4,5.7c1.5,1.7,3.8,2.4,6.1,2c1.4-0.3,2.8-0.8,4.1-1.5c0.9-0.4,2.3-0.9,2.6-0.4
	c0.1,0.2,0.1,0.6-0.3,1.3c-1.4,2.4-4.7,4.1-4.9,4.2c-0.1,0.1-0.2,0.3-0.1,0.4c0,0,0,0,0.1,0.1c0.3,0,0.7,0,1-0.1
	c2.1-0.5,4-1.5,5.6-3c0,0-0.1,0.3-0.2,0.6s0,0.4,0.2,0.4c0.5,0,1.9-1.6,2.1-1.7s0.1,0.1,0.1,0.4s-0.1,0.7,0.1,0.8s0.7-0.2,1.3-1.7
	c0.5-1.2,1-1.3,1.2-1.2c1.3,0.6-0.3,4.2-0.4,4.4s0,0.4,0.1,0.5c0.3,0.1,4.9-3.5,6.6-6.4C53.2,32.3,52,26.9,49.2,27z M24.3,64.9
	c0.4-0.1,0.6-0.4,0.6-0.7c0-0.3-0.1-0.6-0.2-0.8c-0.1-0.3-0.4-0.5-0.6-0.7c-0.5-0.5-0.9-0.6-1.4-0.2L22.5,63c0,0.3,0.1,0.6,0.4,0.8
	C23.3,64.2,23.8,65,24.3,64.9z M18,59.2c-0.3-0.4-0.3-0.7-0.8-0.8c-0.2,0-0.3,0.1-0.5,0.1h-1c-0.2,0-0.3,0-0.5-0.1
	c0.1-0.1,0.3-0.2,0.4-0.2c0.2,0,0.2-0.1,0.5-0.1c0.8-0.1,0.1-0.1,1,0c0.2,0,0.3,0,0.4-0.2c0.2-0.4-0.1-0.2,0.1-0.8
	c0-0.2,0-0.1,0.1-0.2c0.2-0.1,0.3-0.3,0.4-0.5c-0.3-0.7-0.5-0.5-0.5-0.5l0,0l-1.1,0.8c-0.5,0.3-1.5,0-2-0.2c-0.2-0.1-0.1,0-0.4-0.1
	L13,55.9c-0.2-0.1-0.2-0.1-0.4,0s-0.2,0.1-0.3,0.2c0.1,0.2,0.2,0.4,0.4,0.5c0.5,0.3,1.7,0.6,1.9,0.9c0,0.1,0,0-0.1,0.1
	c-0.3,0.2-0.6,0.3-0.9,0.3c-0.3,0-0.2-0.2-0.6,0s-0.3,0.3-0.5,0.3c-0.1,0-0.2,0-0.3,0s-0.2,0.1-0.3,0.1c-0.6,0-0.3,0.1-0.8,0.1
	c-0.2,0-0.4,0.1-0.6,0.1c-0.1,0-0.2,0-0.3-0.1c-0.3,0-0.9,0.5-0.3,0.9s0.4-0.4,2.2-0.3c0.2,0,0.4,0.1,0.5,0.2
	c0.1,0.1,0.1,0.2,0.1,0.2c0.1,0.1,0.1,0.2,0.2,0.3c-0.2,0.3-0.2,0.2-0.5,0.2c-0.2,0-0.4,0.1-0.6,0.1H12c-0.1,0-0.2-0.1-0.3-0.1
	c-0.2,0-0.4,0.3-0.3,0.7s0,0.5,0.5,0.7c0.3,0.1,1,0.3,1.2,0.6c-0.1,0.2-0.2,0.3-0.4,0.3c-0.1,0,0,0-0.1-0.1h-0.1
	c-0.2,0.3,0.1,0.1-0.2,0.6l0.4,0.4c0.7-0.3,0.4-1.1,1.2-0.9c0.2,0.1,0.3,0,0.5,0c0.3,0.5-0.1,0.4-0.3,0.9s0.3,0.8,0.3,0.8
	c0.4,0,0.6-0.5,0.8-0.8l0.8-1c0.1-0.2,0.4-0.5,0.8-0.9c0.1-0.1,0.3-0.3,0.4-0.4c0.2-0.2,0.3-0.3,0.4-0.5s0.3-0.3,0.4-0.5
	S18.1,59.4,18,59.2z M13.5,61.2L13.5,61.2c-0.5,0-0.9-0.1-1.3-0.4c0.2,0,0.5,0,0.8,0h0.4c0.2,0,0.3,0,0.4,0.2
	C13.7,61.1,13.7,61.2,13.5,61.2L13.5,61.2z M14,59.6l0.3-0.4l0.7-0.1c0.2,0,0.5-0.1,0.7,0.1c-0.1,0.2-0.1,0.1-0.4,0.2
	s-0.2,0.1-0.4,0.1S14.2,59.9,14,59.6z M15.4,61.2c-0.2,0.2-0.7,1-0.9,1.1l-0.2-0.1l0.1-0.2c0-0.1,0.1-0.1,0-0.2s-0.2-0.2-0.2-0.3
	c0.1-0.2,0.3-0.3,0.5-0.4l0.2-0.2c0.2-0.1,0.2-0.1,0.3-0.2s-0.1-0.3,0-0.6c0.1-0.1,0.1,0,0.3,0l0.8-0.1
	C16.1,60.5,15.8,60.8,15.4,61.2L15.4,61.2z M8.8,44.8c0.2-0.1,0.4-0.3,0.5-0.5s0.1-0.5,0.1-0.7c0-0.3-0.2-0.5-0.4-0.6
	s-0.4-0.2-0.6-0.2c-0.3,0-0.7,0-1,0.1L5,43.3l0.1,0.4l2.3-0.4c0.3-0.1,0.7-0.1,1.1,0c0.2,0.1,0.4,0.3,0.4,0.5c0,0.1,0,0.3-0.1,0.4
	c-0.1,0.1-0.2,0.2-0.3,0.3c-0.2,0.1-0.5,0.2-0.8,0.2l-2.3,0.4l0.1,0.4l2.3-0.4C8.1,45,8.5,44.9,8.8,44.8z M8.4,48.5
	c0.3-0.1,0.7-0.3,0.9-0.5c0.3-0.2,0.5-0.4,0.6-0.7c0.1-0.2,0.1-0.5,0.1-0.8c0-0.2-0.2-0.4-0.4-0.5c-0.2-0.2-0.5-0.3-0.9-0.3
	s-0.8,0-1.1,0.1c-0.4,0.1-0.7,0.3-1,0.5C6.4,46.4,6.1,46.7,6,47c-0.1,0.2-0.1,0.5-0.1,0.8c0.1,0.4,0.4,0.7,0.8,0.8
	C7.3,48.7,7.9,48.7,8.4,48.5z M6.4,47.6c-0.1-0.2,0-0.4,0.1-0.5c0.1-0.2,0.3-0.4,0.5-0.5c0.2-0.2,0.5-0.3,0.8-0.4
	c0.4-0.1,0.8-0.1,1.2-0.1c0.3,0.1,0.5,0.3,0.6,0.5c0.1,0.3,0,0.6-0.2,0.8c-0.3,0.3-0.6,0.5-1,0.6C8,48.2,7.5,48.2,7,48.1
	C6.7,48.1,6.5,47.9,6.4,47.6L6.4,47.6z M10.3,49.2c0.1,0.1,0.2,0.2,0.2,0.3c0.1,0.1,0.1,0.3,0.1,0.5c0,0.1-0.1,0.3-0.2,0.4
	c-0.1,0.1-0.3,0.2-0.4,0.3l0.2,0.3c0.2-0.1,0.5-0.2,0.6-0.4c0.2-0.1,0.3-0.3,0.3-0.6c0-0.2,0-0.5-0.1-0.7s-0.2-0.3-0.4-0.5
	c-0.2-0.1-0.4-0.2-0.6-0.2c-0.2,0-0.4,0-0.6,0.1C9.2,48.8,9,48.9,8.9,49s-0.2,0.3-0.3,0.5c0,0.2,0,0.5,0,0.7s0,0.4-0.1,0.6
	C8.4,50.9,8.3,51,8.2,51c-0.3,0.1-0.7,0-0.8-0.3v-0.1c-0.1-0.2-0.1-0.4,0-0.5C7.6,50,7.8,49.9,8,49.8l-0.2-0.3
	c-0.2,0.1-0.4,0.2-0.6,0.4C7.1,50,7,50.2,7,50.4c-0.1,0.4,0.1,0.8,0.4,1c0.1,0.1,0.3,0.2,0.5,0.2c0.2,0,0.4,0,0.6-0.1
	s0.3-0.2,0.4-0.3c0.1-0.1,0.2-0.3,0.2-0.4c0-0.2,0-0.4,0-0.6c0-0.2,0-0.4,0-0.5s0.1-0.2,0.1-0.3c0.1-0.1,0.2-0.2,0.3-0.2
	C9.7,49,9.9,49,10,49S10.2,49.1,10.3,49.2L10.3,49.2z M59,65.1c-0.5-0.4-0.3-0.6-1-0.4c-0.2,0.1-0.4,0.1-0.6,0.2
	c-0.5,0.2-0.3,0.2-0.5,0.3s0.1-0.1-0.2,0.1l-0.1,0.1l-0.2,0.2c-1.2,1.4,0.8,0.9,1.7,1c0.1,0,0.2,0,0.3,0c1,0.1,1,0.3,1.2-0.4
	C59.7,65.7,59.1,65.2,59,65.1z M68,41.2h0.5l0.1-1.4l3.6,0.3v-0.4l-4.1-0.3L68,41.2z M70.5,45.8c-0.3-0.2-0.6-0.4-1-0.5
	s-0.7-0.2-1.1-0.1c-0.3,0-0.6,0.1-0.9,0.3c-0.4,0.3-0.6,0.8-0.5,1.3c0.1,0.2,0.2,0.5,0.3,0.7l1.5,0.4l0.3-1.2l-0.5-0.1l-0.2,0.8
	l-0.7-0.2c-0.1-0.1-0.2-0.3-0.2-0.4c-0.1-0.2-0.1-0.3,0-0.5s0.2-0.3,0.3-0.5c0.2-0.1,0.4-0.2,0.6-0.2c0.3,0,0.6,0,0.9,0.1
	s0.5,0.2,0.8,0.3c0.1,0.1,0.2,0.2,0.3,0.3c0.1,0.1,0.2,0.2,0.2,0.4s0,0.3,0,0.5c0,0.1-0.1,0.3-0.2,0.3c-0.1,0.1-0.2,0.1-0.3,0.2
	c-0.2,0-0.3,0-0.5,0v0.4c0.2,0,0.5,0,0.7,0s0.4-0.1,0.5-0.3c0.1-0.1,0.2-0.3,0.3-0.5c0.1-0.3,0.1-0.5,0-0.8
	C71,46.2,70.8,46,70.5,45.8L70.5,45.8z M70,41.8c-0.3-0.1-0.7-0.1-1,0s-0.6,0.2-0.8,0.4c-0.2,0.2-0.3,0.4-0.4,0.7
	c0,0.3,0,0.5,0.2,0.7c0.2,0.3,0.4,0.4,0.7,0.6c0.7,0.3,1.5,0.4,2.2,0.3c0.3-0.1,0.6-0.2,0.8-0.4c0.2-0.2,0.3-0.4,0.3-0.7
	c0-0.4-0.1-0.8-0.4-1C71.1,42.1,70.5,41.9,70,41.8L70,41.8z M71.2,43.9c-0.2,0.1-0.4,0.2-0.6,0.3c-0.3,0-0.6,0-0.9,0
	c-0.4,0-0.8-0.2-1.2-0.4c-0.4-0.2-0.5-0.7-0.2-1.1c0.1-0.1,0.2-0.2,0.4-0.3c0.4-0.2,0.8-0.2,1.2-0.1c0.5,0,0.9,0.2,1.3,0.5
	c0.2,0.2,0.3,0.5,0.3,0.7C71.5,43.6,71.4,43.8,71.2,43.9L71.2,43.9z M71.7,36.4c-0.5-0.3-1.1-0.4-1.6-0.3c-0.3,0-0.7,0.1-1,0.2
	c-0.3,0.1-0.5,0.3-0.8,0.5c-0.2,0.2-0.3,0.5-0.2,0.7c0,0.3,0.1,0.5,0.3,0.7c0.2,0.2,0.5,0.4,0.8,0.5c0.4,0.1,0.7,0.2,1.1,0.1
	c0.4,0,0.7-0.1,1.1-0.2c0.3-0.1,0.5-0.3,0.8-0.5c0.2-0.2,0.3-0.5,0.2-0.7C72.3,37,72,36.7,71.7,36.4L71.7,36.4z M71.7,37.9
	c-0.2,0.2-0.3,0.3-0.6,0.4c-0.3,0.1-0.6,0.1-0.9,0.2c-0.4,0.1-0.9,0-1.2-0.2c-0.3-0.1-0.4-0.4-0.4-0.7s0.1-0.6,0.4-0.7
	c0.3-0.2,0.8-0.3,1.2-0.3c0.5-0.1,0.9,0,1.3,0.2c0.2,0.1,0.4,0.4,0.4,0.7C71.9,37.7,71.8,37.9,71.7,37.9L71.7,37.9z M5.4,41.4
	L9,41.1v-0.4L5.3,41l-0.1-1H4.8L5,42.4h0.5L5.4,41.4z M48,70.9l-1.6-0.1l0,0l0.7-1.3c0.1-0.1,0.1-0.2,0-0.3
	c-0.1-0.2-0.3-0.3-0.5-0.3L46,69.2h-0.1l0,0l0,0l0,0c0,0,0-0.4-0.1-0.4c0-0.1,0-0.2,0-0.3c0.5-0.3,0.9-0.5,1.4-0.8
	c0.4-0.4,0.1-0.5-0.1-0.8c-0.1-0.1-0.3-0.1-0.7,0c-0.1,0-0.7,0.3-0.7,0.3l0,0l0,0l0,0l-0.1-0.8c-0.1-0.2-0.3-0.2-0.4-0.2
	c-0.1,0-0.2,0-0.3,0s-0.2,0.1-0.3,0.1s-0.2,0.2-0.2,0.2l0,0l0,0l0,0l0,0l0.1,0.1c0,0.1,0.2,1.2,0.2,1.2s0,0.1,0,0.2l0,0v0.1
	c0,0,0,0,0,0.1l0,0L44,68.9l0,0h-0.1c-0.2,0-0.2,0.2-0.2,0.2l0,0v0.1c0,0,0.1,0.2,0.2,0.2s0.3,0.1,0.5,0l0,0l0,0
	c0.1-0.1,0.2-0.2,0.2-0.3c0,0,0.1-0.2,0.2-0.2l0,0l0.1,0.6c0,0,0,0,0,0.2c0,0.4-1,0.8-1.1,0.8s-0.1,0,0.1,0.2
	c0.2,0.1,0.5,0.2,0.7,0.3c0.2,0,0.3,0.1,0.5,0.2h0.1l0,0l0,0l0,0l0,0c-0.1,0.2-0.4,0.3-0.6,0.4l0,0c0,0-1.2-0.1-1.4-0.1v-0.1
	c0,0-0.1-1.1-0.2-1.1c0,0,0,0,0-0.1l0,0l0.1-0.1c0.1-0.3,0.5-0.5,0.7-0.9c0,0,0.1-0.1,0-0.1s-0.7,0.6-0.7,0.7L43,69.9
	c0-0.2,0-0.4-0.1-0.6v-0.1l0,0v-0.1l0,0l0,0L43,69l0.1-0.1h0.1l0.1-0.1l0,0c0.6-0.4,0.1-0.5,0.1-0.5c-0.2,0-0.5,0-0.7,0.1l-0.1-0.1
	c0,0,0,0,0-0.1s0-0.5,0-0.6s0,0,0-0.1v-0.1l0,0c0,0,0,0,0-0.1l0,0c0-0.2,0-0.3-0.2-0.4c-0.3-0.1-0.7-0.1-1,0
	c-0.2,0.1-0.2,0.2-0.1,0.4l0,0v0.1l0,0l0.3,1.2l0,0v0.1c0,0.1,0,0.1,0,0.2l0,0l0,0c0,0,0,0,0,0.1c0,0-0.3,0.2-0.6,0.4
	c-0.1,0.1-0.2,0.2-0.3,0.3c-0.1,0.1-0.2,0.1-0.3,0.2l0,0c0,0-0.1,0-0.1,0.1c0,0,0,0-0.1,0.1v0.1c0,0,0.1,0.4,0.3,0.4l0,0l0.2,0.1
	h0.1c0.1-0.1,0.3-0.2,0.4-0.3c0.1-0.1,0.3-0.2,0.5-0.3l0,0l0,0h0.1l0,0l0,0v0.1c0,0,0.1,0.6,0.1,0.7V71c0,0,0,0,0,0.1l0,0
	c0,0-1,1.2-1.1,1.2c0,0,0,0-0.1,0.1l0,0c0,0,0,0.1-0.1,0.1l0,0l0,0c-0.1,0.1-0.1,0.2-0.2,0.4c0,0.1,0.1,0.2,0.2,0.3
	c0,0.1,0.2,0.2,0.3,0.2s0.2-0.1,0.3-0.1l0.3-0.8c0.2,0.1,0.4,0.3,0.5,0.4s0.1,0.3,0.1,0.4c0,0.2,0.1,0.4,0.3,0.5l0,0
	c0.4,0,0.7-0.5,0.6-1.1c0-0.2,0-0.4,0-0.6V72c0.1,0,0.6,0.2,0.6,0.1l0,0l0.7,0.3l0,0l0,0l0,0l0,0c0,0-0.1,0-0.2,0l0,0h0.1l0,0
	l0.2,0.2h0.2h0.1l0,0l0,0c0.2,0.1,0.4,0.1,0.6,0c0.1-0.1,0.3-0.2,0.3-0.4l0.2-0.4l0.2,0.1c0,0,0,0,0.1,0s0,0,0,0h0.1l0,0l0,0
	c0.3,0.1,0.7,0.3,1,0.4c0.2,0.1,0.5,0.1,0.7,0.1H48c0,0,0,0,0.1,0l0,0c0,0,0.3,0,0.3-0.2c0,0,0,0,0-0.1c0.1-0.2,0.2-0.4,0.4-0.6
	c0.2-0.1,0.5-0.2,0.4-0.3C49.4,70.8,48.1,70.9,48,70.9z M41.9,72.3c-0.2-0.1-0.4-0.2-0.5-0.2l0.4-0.8l0,0l0.1,0.8
	C41.9,72.2,41.9,72.2,41.9,72.3L41.9,72.3z M45.5,70.5l-0.2,0.2c-0.1,0-0.3,0-0.5,0c0,0-0.3,0-0.2-0.1c0.3-0.2,0.7-0.4,1.1-0.6
	C45.7,70,45.7,70.2,45.5,70.5L45.5,70.5z M55.8,65l0.9-1.9c0.2-0.6,0.6-0.9,0-1.2c-0.2-0.1-0.4-0.2-0.7-0.1
	c-0.2,0.1-0.5,0.2-0.7,0.3c0.1,0.3,0.2,0.3,0.4,0.5c0,0.2-0.2,0.4-0.2,0.6s0,0.3-0.3,0.6C55,63.3,55,62.5,54.9,62
	c-0.3-0.9-1.2-0.7-1.3-0.2s0.5,0.8,0.8,1.7c0.2,0.5,0.2,1.1,0.1,1.6c-0.5,0.9-1.2,1.6-2,2.2c-0.8,0.7,0,1.2,0.5,0.9
	c0.3-0.1,0.6-0.4,0.8-0.6c0.4-0.4,1-1.5,1.2-1.3l0,0c-0.1-0.2,0.1,0.1,0,0l0,0c0.1,0.1,0,0.2,0,0.4c0,0.3-0.1,0.6-0.3,0.9l-1.6,1.7
	c-0.2,0.2-0.4,0.2-0.4,0.4c0.1,0,0,0,0.1,0h0.1c0.3-0.2,0.6-0.3,0.9-0.3c0.6-0.1,1.2-0.5,1.5-1.1c0.9-1.2,0.6-1.6,0.4-2.6
	C55.8,65.5,55.8,65.2,55.8,65z M66.4,48.7L66.2,49l1.6,0.7l1.8,2l0.2-0.4l-0.9-1c-0.2-0.2-0.4-0.4-0.6-0.6h0.8l1.4-0.1l0.2-0.4
	L68,49.3L66.4,48.7z M66,58.7c0,0,0-0.3-0.2-0.2s-0.5,0.5-0.7,0.6c-0.4,0.3-0.7,0.7-0.7,0.7c-0.2-0.1-0.3-0.1-0.3-0.4v-1.2
	c0-0.2-0.1-0.4-0.3-0.5c-0.3-0.1-0.3,0.2-0.5,0.2c-0.1-0.2,0-0.3,0.1-0.5s0.2-0.3,0.3-0.5s0-0.1,0.1-0.3s0.1-0.1,0.1-0.2
	s0-0.6-0.4-0.4l-0.2,0.2c-0.1,0.1-0.3,0.2-0.4,0.3c-0.2,0.7-0.5,1.3-0.8,1.9c-0.2-0.2,0,0,0-0.2l0.1-0.5c0.1-0.4,0.2-0.9,0.2-1.3
	c0-0.3,0.3-0.4,0.1-0.7c-0.3-0.1-0.4,0-0.7,0.1c-0.2-0.4,0.5-0.6-0.2-0.8h-0.3c-0.1-0.3-0.1-0.3-0.4-0.4c-0.5,0.3-0.1,0.8,0,1.2
	c0,0.2,0,0.1,0,0.3s0.1-0.1-0.1,0.4v0.1c0,0.1-0.1,0.2-0.2,0.2c-0.2-0.1-0.1-0.2-0.3-0.2c-0.5,0-0.5,0.5-0.5,0.8
	c-0.1,0.1-0.2,0.1-0.4,0.1l-0.1,0.2c-0.1,0.4,0.4,1,0.6,1.3s0.2,0.4,0.3,0.5s0.3,0.1,0.5,0.1c0.3-0.1,0.3-0.1,0.4-0.3
	c0.2-0.4,0.3-0.2,0.2-0.5c0-0.1-0.2-0.3,0.1-0.4v0.2c-0.1,0.4-0.2,0.8-0.4,1.2c-0.1,0.5-0.2,0.9-0.5,1.4c-0.1,0.3,0,0.7,0.4,0.8l0,0
	c0.2-0.1,0.3-0.2,0.5-0.4l0,0l0,0l0.1-0.9c0.1-0.7,0.1-0.4,0.2-0.9c0.1-0.8,0.3-0.6,0.3-0.9s0.1-0.2,0.2-0.5s-0.1-0.1,0.3-0.4
	c0.1,0.7-0.4,0.8,0,1.2c-0.1,0.3-0.3,0.6-0.3,0.9c-0.1,0.3-0.2,0.6-0.3,0.8c-0.3,0.5-0.3,0.3-0.2,0.5c0.4,0,0.6-0.5,0.8-0.7
	c0,0,0.4-0.7,0.4-0.8c0.1-0.3,0.2-0.6,0.5-0.9c0.2,0.6-0.4,1.2-0.3,1.4s0.3,0.3,0.3,0.4s0,0-0.1,0.2l-0.5,0.7
	c-0.2,0.2-0.8,0.7-0.8,0.8c0.5,0.5,1.9-1.5,2.3-1.5c0.1,0,0,0,0.2,0.1c0,0,0.1,0.1,0.1,0.2c0.1,0.3,0.1,0.6-0.2,0.8
	c0.2,0.2,0,0,0.1,0.1s0,0.2,0.3,0.4c0.6,0,1.2-0.2,1-0.9c0-0.1-0.1-0.3-0.1-0.4c-0.1-0.3-0.5-0.7-0.6-1.1c0.8-0.8,1.8-1,1.2-1.6
	C66.1,58.7,66.1,58.8,66,58.7L66,58.7z M61.3,57.7c-0.1-0.2,0-0.4,0.1-0.5C61.5,57.3,61.5,57.4,61.3,57.7L61.3,57.7z M62.9,58.5
	c-0.1,0.3,0,0.4-0.3,0.5v-0.3c0-0.2,0-0.1,0.1-0.3c0.1-0.5-0.1-0.3,0.3-0.5C63.2,58.2,63,58.2,62.9,58.5L62.9,58.5z M10,30.6
	l-3.1-0.9l3.5-0.6l0.1-0.4l-4-1.1L6.4,28l3.1,0.9L6,29.4l-0.1,0.4l4,1.1L10,30.6z M23.4,8.9l1.6,3.2l0.4-0.2l-1.6-3.3l0.8-0.4
	l-0.2-0.4l-2,1l0.2,0.4L23.4,8.9z M27.4,11l0.4-0.1l-0.6-1.6l0.2-2.6L27,6.9l-0.1,1.3c0,0.3,0,0.6,0,0.8l-0.5-0.5l-1-0.9L25,7.8
	l1.9,1.8L27.4,11z M30.8,8.8c0.1,0.3,0.4,0.5,0.6,0.6s0.5,0.2,0.8,0.1c0.2-0.1,0.5-0.2,0.6-0.4c0.2-0.2,0.3-0.5,0.3-0.8
	c0-0.4,0-0.8-0.1-1.1c-0.1-0.4-0.2-0.7-0.4-1s-0.4-0.5-0.7-0.6c-0.2-0.1-0.5-0.2-0.8-0.1c-0.4,0.1-0.7,0.4-0.8,0.8
	c-0.2,0.5-0.2,1.1,0,1.6C30.5,8.2,30.6,8.6,30.8,8.8L30.8,8.8z M30.8,6.4c0.1-0.3,0.3-0.5,0.6-0.5c0.2,0,0.4,0,0.5,0.1
	c0.2,0.1,0.4,0.3,0.5,0.5c0.1,0.3,0.3,0.5,0.3,0.8c0.1,0.4,0.1,0.8,0,1.2c-0.1,0.3-0.3,0.5-0.6,0.6s-0.6,0-0.8-0.3
	c-0.3-0.3-0.5-0.7-0.5-1.1C30.7,7.4,30.7,6.9,30.8,6.4L30.8,6.4z M23.8,12.7l-2.1-3.5l-0.3,0.2l2,3.6L23.8,12.7z M45.3,5.4H45
	l-0.8,4l0.4,0.1L45.3,5.4z M19.4,11.9c0.1,0.1,0.2,0.3,0.4,0.4c0.1,0.1,0.3,0.1,0.5,0.1s0.4,0,0.6-0.1c0.2,0,0.4-0.1,0.5-0.1
	s0.2,0,0.3,0.1c0.1,0.1,0.2,0.1,0.2,0.2c0.1,0.1,0.1,0.2,0.1,0.3s0,0.2-0.1,0.4c-0.1,0.1-0.1,0.2-0.3,0.3c-0.1,0.1-0.3,0.1-0.4,0.1
	s-0.3,0-0.4-0.1s-0.3-0.2-0.4-0.4l-0.3,0.2c0.1,0.2,0.3,0.4,0.5,0.5S21,14,21.2,14s0.4-0.1,0.6-0.2c0.2-0.1,0.3-0.3,0.4-0.4
	c0.1-0.2,0.1-0.4,0.1-0.6c0-0.2-0.1-0.4-0.2-0.6c-0.1-0.2-0.2-0.3-0.4-0.4c-0.2-0.1-0.3-0.2-0.5-0.1c-0.2,0-0.5,0.1-0.7,0.1
	c-0.2,0.1-0.4,0.1-0.6,0.1c-0.1,0-0.2-0.1-0.3-0.2c-0.1-0.1-0.1-0.3-0.1-0.5s0.2-0.3,0.3-0.4c0.2-0.1,0.3-0.1,0.5-0.1
	c0.2,0.1,0.4,0.2,0.5,0.4l0.3-0.2c-0.1-0.2-0.3-0.3-0.5-0.5c-0.2-0.1-0.4-0.2-0.5-0.2c-0.2,0-0.4,0.1-0.6,0.2
	c-0.2,0.1-0.3,0.2-0.4,0.4S19,11.2,19,11.3C19.2,11.6,19.3,11.7,19.4,11.9z M41.8,8.9c0.2,0.2,0.4,0.3,0.7,0.4
	c0.3,0,0.6-0.1,0.8-0.3c0.3-0.3,0.5-0.6,0.5-1l-0.4-0.2c-0.1,0.3-0.2,0.5-0.4,0.7c-0.1,0.1-0.4,0.2-0.6,0.2c-0.2,0-0.4-0.1-0.5-0.2
	c-0.1-0.2-0.2-0.4-0.2-0.6c0-0.3,0-0.6,0-0.9c0.1-0.3,0.1-0.5,0.2-0.8C42,6,42.1,5.8,42.3,5.6c0.2-0.1,0.4-0.2,0.6-0.2
	c0.2,0,0.3,0.1,0.5,0.3c0.1,0.2,0.2,0.4,0.2,0.7L44,6.3c0-0.3-0.1-0.7-0.3-0.9S43.3,5,43,5c-0.2,0-0.5,0-0.7,0.2
	c-0.3,0.2-0.5,0.4-0.6,0.7c-0.2,0.3-0.3,0.7-0.3,1.1c-0.1,0.4-0.1,0.7,0,1.1C41.5,8.3,41.6,8.6,41.8,8.9z M34.5,9.1l-0.2-1.8
	l1.3-0.2l-0.1-0.5l-1.3,0.2L34,5.5l1.5-0.2l-0.1-0.5L33.5,5L34,9.1H34.5z M40,8.4c-0.1,0.1-0.3,0.1-0.4,0.1c-0.2,0-0.3-0.1-0.4-0.1
	C39.1,8.3,39,8.1,38.9,8c-0.1-0.2-0.1-0.3-0.1-0.5h-0.4c0,0.3,0,0.5,0.1,0.7s0.2,0.4,0.4,0.5s0.4,0.2,0.6,0.2c0.2,0,0.4,0,0.6-0.1
	c0.2-0.1,0.3-0.3,0.4-0.4c0.1-0.2,0.1-0.4,0.2-0.6c0-0.2,0-0.4-0.1-0.6s-0.2-0.3-0.3-0.4c-0.2-0.1-0.4-0.2-0.6-0.3
	c-0.2-0.1-0.4-0.2-0.6-0.3C39,6,39,5.9,39,5.7c0-0.2,0.1-0.3,0.2-0.4c0.1-0.1,0.3-0.2,0.5-0.2s0.4,0.1,0.5,0.2
	c0.1,0.2,0.2,0.4,0.2,0.6h0.4c0-0.2,0-0.5-0.1-0.7s-0.2-0.3-0.4-0.4s-0.4-0.2-0.5-0.2c-0.2,0-0.4,0-0.5,0.1C39,4.9,38.9,5,38.8,5.2
	c-0.1,0.2-0.1,0.4-0.1,0.6s0,0.4,0.1,0.5c0.1,0.2,0.2,0.3,0.3,0.4c0.2,0.1,0.3,0.2,0.5,0.3c0.2,0.1,0.3,0.1,0.5,0.2
	c0.1,0.1,0.2,0.1,0.2,0.2c0.1,0.1,0.1,0.2,0.1,0.3c0,0.1,0,0.2-0.1,0.3C40.2,8.2,40.1,8.3,40,8.4z M9.2,34.3l-0.5-0.1L8.5,36
	l-1.4-0.2l0.2-1.6l-0.5-0.1l-0.2,1.6l-1.2-0.2L5.6,34l-0.5-0.1L4.8,36l4.1,0.5L9.2,34.3z M48.2,10.5l1.2-3l0.2,3.5l0.4,0.1l1.5-3.8
	l-0.3-0.1l-1.2,3l-0.2-3.5l-0.4-0.2l-1.5,3.8L48.2,10.5z M9.3,33.4L7.5,33l0.1-0.4c0-0.1,0-0.1,0.1-0.2c0-0.1,0.1-0.1,0.1-0.2
	c0.1-0.1,0.2-0.1,0.3-0.1c0.2,0,0.4-0.1,0.6-0.1l0.9-0.2l0.1-0.5l-1.2,0.3c-0.2,0-0.4,0.1-0.6,0.2c-0.1,0-0.2,0.1-0.2,0.2
	c0-0.2-0.1-0.5-0.3-0.7C7.2,31.2,7,31,6.7,31c-0.2,0-0.4,0-0.6,0s-0.3,0.1-0.4,0.2c-0.1,0.2-0.2,0.4-0.2,0.6L5.2,33l4.1,0.8
	L9.3,33.4z M7.2,32.2L7,33l-1.3-0.2l0.2-0.9c0-0.2,0.1-0.3,0.3-0.4c0.2-0.1,0.3-0.1,0.5,0c0.1,0,0.2,0.1,0.3,0.1
	c0.1,0.1,0.2,0.2,0.2,0.3C7.2,31.9,7.3,32,7.2,32.2z M10.9,25.8c0.2,0,0.5,0,0.7-0.1s0.4-0.3,0.5-0.5s0.2-0.5,0.1-0.7
	c-0.1-0.2-0.2-0.4-0.4-0.6c-0.3-0.2-0.5-0.4-0.8-0.5l-2.1-1.1l-0.2,0.3l2.1,1.1c0.3,0.1,0.6,0.4,0.9,0.6c0.1,0.2,0.1,0.5,0,0.6
	s-0.2,0.2-0.3,0.3c-0.1,0-0.3,0-0.5,0c-0.3-0.1-0.5-0.2-0.7-0.3L8,24l-0.2,0.3l2.1,1.1C10.3,25.6,10.6,25.8,10.9,25.8z M19.1,16.1
	L18,14.6l0.3-0.3c0.1,0,0.1-0.1,0.2-0.1s0.1,0,0.2,0s0.2,0.1,0.3,0.1c0.1,0,0.3,0.1,0.6,0.3l0.8,0.4l0.4-0.3l-1.1-0.6
	c-0.2-0.1-0.4-0.2-0.6-0.2c-0.1,0-0.2,0-0.3,0c0.2-0.2,0.3-0.4,0.2-0.7c0-0.3-0.1-0.5-0.3-0.7c-0.1-0.2-0.3-0.3-0.5-0.4
	C18,12,17.9,12,17.7,12s-0.4,0.1-0.5,0.3l-1,0.8l2.6,3.2L19.1,16.1z M16.8,13.2l0.7-0.6c0.1-0.1,0.3-0.2,0.5-0.1
	c0.2,0.1,0.3,0.2,0.4,0.3s0.1,0.2,0.2,0.3c0,0.1,0,0.2,0,0.3c-0.1,0.1-0.2,0.2-0.3,0.3l-0.6,0.5L16.8,13.2z M8.8,39l-1.9-0.1v-1.5
	l1.9,0.1v-0.4l-4-0.1v0.4h1.7v1.5H4.8v0.4l4.1,0.1L8.8,39z M15.9,19.3l-2.4-3.5l-0.2,0.3l1.7,2.5c0.1,0.2,0.3,0.4,0.4,0.6l-0.6-0.3
	l-2.7-1.4l-0.3,0.3l3.8,1.9L15.9,19.3z M18.4,16.7l-0.3-0.4l-1.3,1.2l-1-1l1.2-1.1L16.7,15l-1.1,1.1l-0.9-0.9l1.2-1.2l-0.3-0.4
	L14,15.2l2.9,3L18.4,16.7z M13,23.3l-2.7-1.7l3.5,0.5l0.2-0.3l-3.5-2.2l-0.2,0.3l2.7,1.7l-3.5-0.5l-0.2,0.3l3.5,2.2L13,23.3z
	 M14.7,20.9l-3.3-2.4l-0.2,0.3l3.3,2.4L14.7,20.9z"/>
<path class="st0" d="M65.7,11.3L65.7,11.3c-15-15-39.4-15-54.4,0s-15,39.4,0,54.4s39.4,15,54.4,0S80.8,26.3,65.7,11.3 M65.2,65.2
	c-14.7,14.7-38.6,14.7-53.3,0s-14.7-38.6,0-53.3C26.5-3,50.3-3.2,65.2,11.4s15,38.5,0.4,53.3C65.4,64.9,65.3,65,65.2,65.2z"/>
</svg>
