<?xml version="1.0" encoding="utf-8"?>
<!-- Generator: Adobe Illustrator 22.1.0, SVG Export Plug-In . SVG Version: 6.00 Build 0)  -->
<svg version="1.1" id="图层_1" xmlns="http://www.w3.org/2000/svg" xmlns:xlink="http://www.w3.org/1999/xlink" x="0px" y="0px"
	 viewBox="0 0 1361 609" style="enable-background:new 0 0 1361 609;" xml:space="preserve">
<style type="text/css">
	.st0{opacity:0.8;}
	.st1{opacity:0.25;fill:#CFDAE6;enable-background:new    ;}
	.st2{opacity:0.6;fill:#CFDAE6;enable-background:new    ;}
	.st3{opacity:0.45;fill:#CFDAE6;enable-background:new    ;}
	.st4{fill:none;stroke:#CFDAE6;stroke-width:1.7391;stroke-linecap:round;stroke-linejoin:round;}
	
		.st5{opacity:0.7;fill:none;stroke:#E0B4B7;stroke-width:0.7027;stroke-linecap:round;stroke-linejoin:round;stroke-dasharray:1.4054,2.108;enable-background:new    ;}
	.st6{fill:none;stroke:#BACAD9;stroke-width:0.7027;stroke-linecap:round;stroke-linejoin:round;stroke-dasharray:1.4054,2.108;}
	.st7{fill:#CFDAE6;}
	.st8{opacity:0.3;fill:#CFDAE6;enable-background:new    ;}
	.st9{opacity:0.4;fill:none;stroke:#CFDAE6;enable-background:new    ;}
	.st10{opacity:0.5;fill:#BACAD9;enable-background:new    ;}
	.st11{fill:#BACAD9;}
	.st12{opacity:0.45;}
	.st13{fill:#E6A1A6;}
	.st14{opacity:0.35;fill:#E0B4B7;enable-background:new    ;}
	.st15{opacity:0.8;fill:none;stroke:#CFDAE6;enable-background:new    ;}
	.st16{fill:none;stroke:#CFDAE6;stroke-width:0.9412;}
	.st17{opacity:0.45;fill:#BACAD9;enable-background:new    ;}
	.st18{fill:#F7E1AD;}
	.st19{opacity:0.33;}
	.st20{fill:none;stroke:#BACAD9;stroke-width:1.1667;}
	.st21{fill:none;stroke:#CFDAE6;stroke-width:1.1667;}
	.st22{opacity:0.6;fill:none;stroke:#E0B4B7;stroke-width:1.1667;enable-background:new    ;}
	.st23{fill:#C1D1E0;}
	.st24{fill:#D1DEED;fill-opacity:0.6;}
	.st25{fill:#E0B4B7;}
</style>
<title>Group 21</title>
<desc>Created with Sketch.</desc>
<g id="Group-18" transform="translate(74.901416, 569.699158) rotate(-7.000000) translate(-74.901416, -569.699158) translate(4.901416, 525.199158)" class="st0">
	
		<ellipse id="Oval-11" transform="matrix(-1 2.855988e-06 -2.855988e-06 -1 993.442 -101.628)" class="st1" cx="496.7" cy="-50.8" rx="21.8" ry="21.8"/>
	
		<ellipse id="Oval-3" transform="matrix(-1 -1.173824e-05 1.173824e-05 -1 878.2681 -138.8244)" class="st2" cx="439.1" cy="-69.4" rx="5.2" ry="5.2"/>
	<path id="Oval-3-Copy" class="st3" d="M471.3,5.1c5.8,0,10.4-4.7,10.4-10.4c0-5.8-4.7-10.4-10.4-10.4s-10.4,4.7-10.4,10.4
		C460.8,0.4,465.5,5.1,471.3,5.1z"/>
	<path id="Path-12" class="st4" d="M497.4-50.1l54.9-16.6"/>
	<path id="Path-16" class="st5" d="M475.3-56.8l-34.4-11.9"/>
	<path id="Path-15" class="st6" d="M497.1-49.8L476.8-14"/>
	
		<g id="Group-17" transform="translate(126.850922, 13.543654) rotate(30.000000) translate(-126.850922, -13.543654) translate(117.285705, 4.381889)">
		
			<ellipse id="Oval-4" transform="matrix(3.050039e-06 1 -1 3.050039e-06 63.039 -622.1785)" class="st3" cx="342.6" cy="-279.6" rx="9.1" ry="9.1"/>
		<path id="Oval-4_1_" class="st7" d="M333.5-279.6c0,5,4.1,9.1,9.1,9.1s9.1-4.1,9.1-9.1H333.5z"/>
	</g>
</g>
<g id="Group-14" transform="translate(216.294700, 123.725600) rotate(-5.000000) translate(-216.294700, -123.725600) translate(106.294700, 35.225600)">
	
		<ellipse id="Oval-2" transform="matrix(-1 2.304961e-06 -2.304961e-06 -1 55.8193 40.0003)" class="st1" cx="27.9" cy="20" rx="29.1" ry="29.1"/>
	
		<ellipse id="Oval-2_1_" transform="matrix(-1 2.304972e-06 -2.304972e-06 -1 55.8193 40.0003)" class="st8" cx="27.9" cy="20" rx="21.6" ry="21.6"/>
	
		<ellipse id="Oval-2-Copy" transform="matrix(-1 2.304978e-06 -2.304978e-06 -1 355.6234 258.0121)" class="st9" cx="177.8" cy="129" rx="23.7" ry="23.7"/>
	
		<ellipse id="Oval-2_2_" transform="matrix(-1 2.304896e-06 -2.304896e-06 -1 55.8193 40.0003)" class="st10" cx="27.9" cy="20" rx="10.8" ry="10.8"/>
	<path id="Oval-2_3_" class="st11" d="M27.9,30.8l0-21.6C22,9.2,17.1,14,17.1,20C17.1,26,22,30.8,27.9,30.8z"/>
	<g id="Group-9" transform="translate(172.000000, 131.000000)" class="st12">
		
			<ellipse id="Oval-2-Copy-2" transform="matrix(-1 2.304992e-06 -2.304992e-06 -1 11.6231 -3.9875)" class="st13" cx="5.8" cy="-2" rx="6.5" ry="6.5"/>
		<path id="Oval-2-Copy-2_1_" class="st13" d="M5.8,4.5C2.2,4.5-0.7,1.6-0.7-2c0-3.6,2.9-6.5,6.5-6.5L5.8,4.5z"/>
	</g>
	
		<ellipse id="Oval-10" transform="matrix(-1 2.304960e-06 -2.304960e-06 -1 434.3488 259.0913)" class="st7" cx="217.2" cy="129.5" rx="1.6" ry="1.6"/>
	
		<ellipse id="Oval-10-Copy-2" transform="matrix(-1 2.304976e-06 -2.304976e-06 -1 356.7019 332.4817)" class="st14" cx="178.4" cy="166.2" rx="1.6" ry="1.6"/>
	
		<ellipse id="Oval-10-Copy" transform="matrix(-1 2.304778e-06 -2.304778e-06 -1 357.7802 186.7805)" class="st14" cx="178.9" cy="93.4" rx="2.2" ry="2.2"/>
	<path id="Path-11" class="st15" d="M27.8,20.8l142.2,102.9"/>
</g>
<g id="Group-10" transform="translate(1054.100635, 36.659317) rotate(-11.000000) translate(-1054.100635, -36.659317) translate(1026.600635, 4.659317)" class="st0">
	
		<ellipse id="Oval-7" transform="matrix(-1 2.500076e-06 -2.500076e-06 -1 87.1352 45.5674)" class="st16" cx="43.6" cy="22.8" rx="11.2" ry="11.3"/>
	<g id="Group-12" transform="translate(34.596774, 23.111111)">
		
			<ellipse id="Oval-7_1_" transform="matrix(-1 2.500078e-06 -2.500078e-06 -1 17.8788 -0.6548)" class="st17" cx="8.9" cy="-0.3" rx="8.5" ry="8.6"/>
		<path id="Oval-7_2_" class="st11" d="M8.9,8.2c4.7,0,8.5-3.8,8.5-8.6s-3.8-8.6-8.5-8.6V8.2z"/>
	</g>
	<path id="Path-2" class="st16" d="M34.4,15.6L5.5-4.4"/>
	
		<ellipse id="Oval" transform="matrix(-1 2.500072e-06 -2.500072e-06 -1 6.0335 -11.8443)" class="st16" cx="3" cy="-5.9" rx="3.3" ry="3.3"/>
	
		<ellipse id="Oval-Copy" transform="matrix(-1 2.500064e-06 -2.500064e-06 -1 5.1014 103.9204)" class="st18" cx="2.6" cy="52" rx="2.8" ry="2.8"/>
	<path id="Path-10" class="st16" d="M34.4,30.1L4.8,50.6"/>
</g>
<g id="Group-19" transform="translate(1282.537219, 446.502867) rotate(-10.000000) translate(-1282.537219, -446.502867) translate(1142.537219, 327.502867)" class="st19">
	
		<g id="Group-17_1_" transform="translate(141.333539, 104.502742) rotate(275.000000) translate(-141.333539, -104.502742) translate(129.333539, 92.502742)">
		<circle id="Oval-4_2_" class="st17" cx="20.8" cy="10.5" r="11.7"/>
		<path id="Oval-4_3_" class="st11" d="M9.1,10.5c0,6.4,5.2,11.7,11.7,11.7c6.4,0,11.7-5.2,11.7-11.7L9.1,10.5z"/>
	</g>
	<circle id="Oval-5-Copy-6" class="st7" cx="201.4" cy="78.3" r="5.8"/>
	<path id="Path-17" class="st20" d="M143.1,79.6l11.6-71.2"/>
	<path id="Path-18" class="st20" d="M17.1,28.1l110,60.3"/>
	<polyline id="Path-19" class="st21" points="143.5,111.1 174.5,222.4 38.1,138.3 126,101.6 	"/>
	<path id="Path-20" class="st22" d="M159.4,90.5L195,80"/>
	<path id="Path-24" class="st20" d="M204.9,72.9l33.4-46"/>
	<path id="Path-25" class="st21" d="M266.3,123l-59.6-41.8"/>
	<circle id="Oval-5" class="st23" cx="156.5" cy="-0.5" r="8.7"/>
	<circle id="Oval-5-Copy-3" class="st23" cx="38.7" cy="139.5" r="5.2"/>
	<circle id="Oval-5-Copy-2" class="st24" cx="8.3" cy="24" r="8.7"/>
	<circle id="Oval-5-Copy-4" class="st24" cx="243.4" cy="21.1" r="5.8"/>
	<circle id="Oval-5-Copy-5" class="st25" cx="175.2" cy="223.5" r="5.2"/>
</g>
</svg>
